<svg width="25" height="25" viewBox="0 0 25 25" fill="none" xmlns="http://www.w3.org/2000/svg">
<path d="M12.5208 2.0835C8.6875 2.0835 5.58333 5.18766 5.58333 9.021V11.2085C5.58333 11.9168 5.29167 12.9793 4.92708 13.5835L3.60417 15.7918C2.79167 17.1564 3.35417 18.6772 4.85417 19.1772C9.83333 20.8335 15.2188 20.8335 20.1979 19.1772C21.6042 18.7085 22.2083 17.0627 21.4479 15.7918L20.125 13.5835C19.7604 12.9793 19.4688 11.9064 19.4688 11.2085V9.021C19.4583 5.2085 16.3333 2.0835 12.5208 2.0835Z" fill="#00B9AB" stroke="#00B9AB" stroke-width="1.5" stroke-miterlimit="10" stroke-linecap="round"/>
<path d="M15.9688 19.604C15.9688 21.5103 14.4063 23.0728 12.5 23.0728C11.5521 23.0728 10.6771 22.6769 10.0521 22.0519C9.42708 21.4269 9.03125 20.5519 9.03125 19.604" stroke="#00B9AB" stroke-width="1.5" stroke-miterlimit="10"/>
</svg>
